<svg xmlns="http://www.w3.org/2000/svg" id="Layer_2" data-name="Layer 2" viewBox="0 0 372.36 146.42"><defs><style>      .cls-1 {        fill-rule: evenodd;      }      .cls-1, .cls-2 {        fill: #fff;        stroke-width: 0px;      }    </style></defs><g id="Layer_1-2" data-name="Layer 1"><g><path class="cls-1" d="M251.71,8.93c0,1.15-.21,2.67-.58,4.59-.39,1.92-.87,3.44-1.46,4.61-.58,1.17-1.24,1.75-1.96,1.75-.52,0-1.16-.36-1.88-1.02-.72-.67-1.67-1.4-2.83-2.17-1.18-.77-2.66-1.5-4.48-2.17-1.82-.67-4.07-1-6.77-1-2.99,0-5.72.6-8.17,1.8-2.46,1.21-4.64,2.8-6.58,4.78-1.94,1.98-3.63,4.24-5.08,6.83-1.47,2.57-2.66,5.22-3.61,8-.93,2.78-1.65,5.53-2.1,8.29-.47,2.76-.7,5.32-.7,7.68,0,2.86.35,5.36,1.05,7.52.72,2.17,1.73,3.97,3.05,5.39,1.34,1.42,2.97,2.51,4.91,3.22,1.92.71,4.11,1.06,6.52,1.06,2.87,0,5.3-.29,7.35-.92,2.04-.6,3.78-1.27,5.2-2,1.42-.75,2.62-1.42,3.57-2.03.95-.61,1.8-.92,2.56-.92.54,0,.89.19,1.07.58.16.38.27.92.27,1.61,0,.29-.04.73-.12,1.29-.08.56-.19,1.21-.31,1.92-.1.71-.25,1.5-.41,2.34-.16.83-.35,1.61-.56,2.32-.19.71-.43,1.36-.68,1.96-.27.58-.62,1.11-1.05,1.54-.45.46-1.32,1.04-2.6,1.75-1.3.71-2.87,1.38-4.73,1.98-1.86.61-3.94,1.13-6.29,1.57-2.33.42-4.83.65-7.49.65-4.4,0-8.36-.61-11.89-1.77-3.53-1.19-6.52-2.99-8.98-5.39-2.45-2.4-4.35-5.43-5.67-9.06-1.34-3.63-2-7.87-2-12.71,0-3.8.39-7.75,1.16-11.84.76-4.09,1.92-8.1,3.47-12.02,1.57-3.9,3.53-7.62,5.9-11.13,2.37-3.51,5.18-6.58,8.44-9.21,3.24-2.63,6.93-4.72,11.06-6.26,4.13-1.54,8.71-2.34,13.74-2.34,2.83,0,5.49.31,8.03.9,2.52.58,4.7,1.38,6.58,2.36,1.88.98,3.18,1.86,3.92,2.65.74.79,1.14,1.82,1.14,3.03h0ZM323.46,29.91c0-4.7-.7-8.81-2.08-12.38-1.4-3.57-3.49-6.56-6.29-8.96-2.81-2.42-6.29-4.24-10.46-5.45-4.17-1.23-9.35-1.84-15.56-1.84h-18.86c-1.51,0-2.79.4-3.88,1.19-1.09.79-1.8,2.09-2.1,3.88l-13.66,69c-.21.98-.25,1.8-.1,2.44.14.65.41,1.17.78,1.57.39.38.87.65,1.47.81.58.17,1.2.25,1.84.25h19.89c5.51,0,10.28-.44,14.26-1.34,3.98-.9,7.57-2.15,10.77-3.78,3.18-1.61,5.98-3.51,8.42-5.72,2.44-2.19,4.56-4.57,6.31-7.12,1.77-2.55,3.26-5.22,4.46-8.02,1.18-2.78,2.13-5.6,2.83-8.43.72-2.84,1.22-5.62,1.53-8.35.29-2.73.45-5.32.45-7.77h0ZM306.76,31.81c0,2.61-.23,5.3-.66,8.08-.45,2.76-1.16,5.47-2.15,8.12-.99,2.65-2.25,5.18-3.82,7.56-1.55,2.38-3.42,4.49-5.61,6.3-2.21,1.82-4.75,3.24-7.61,4.28-2.89,1.04-6.44,1.57-10.67,1.57h-8.36l10.71-53.84h8.27c4.04,0,7.24.46,9.66,1.36,2.39.9,4.35,2.13,5.88,3.74,1.53,1.59,2.64,3.49,3.32,5.68.7,2.21,1.03,4.59,1.03,7.16h0ZM372.36,69.6c0,.29-.04.75-.1,1.38-.06.65-.17,1.36-.29,2.17-.14.81-.33,1.65-.56,2.5-.23.86-.47,1.65-.78,2.36-.31.71-.66,1.29-1.05,1.75-.41.44-.87.67-1.4.67h-35.84c-.64,0-1.24-.08-1.77-.27-.56-.19-.99-.5-1.34-.92-.33-.44-.58-.96-.68-1.59-.12-.65-.1-1.4.06-2.3l14.26-71.92c.04-.42.23-.79.54-1.11.33-.33.83-.61,1.49-.79.66-.21,1.51-.35,2.54-.46,1.03-.1,2.33-.17,3.9-.17s2.81.06,3.82.17c.99.1,1.79.25,2.35.46.56.19.93.46,1.11.79.19.31.23.69.14,1.11l-12.57,63.71h24.66c.58,0,.97.23,1.18.67.23.46.35,1.04.35,1.77Z"></path><path class="cls-2" d="M217.06,134.92c.08.6.12,1.07.11,1.42,0,.35-.12.61-.35.79-.22.17-.59.28-1.11.32-.52.04-1.22.06-2.12.06-.63,0-1.15-.01-1.55-.04-.4-.03-.71-.07-.92-.14-.22-.07-.37-.17-.45-.3-.08-.13-.13-.32-.15-.55l-.87-6.49h-12.12l-3.34,6.34c-.12.23-.25.43-.4.59-.15.16-.37.28-.65.36-.28.08-.66.14-1.14.17-.47.03-1.07.05-1.78.05-.77,0-1.36-.02-1.78-.07-.42-.05-.71-.17-.85-.36-.14-.19-.16-.46-.05-.81.11-.35.32-.81.64-1.4l15.67-28.64c.17-.28.33-.51.5-.69.17-.17.4-.31.71-.4.31-.09.72-.15,1.25-.17.52-.02,1.21-.04,2.06-.04.98,0,1.76.01,2.33.04.57.03,1.02.08,1.33.17.32.09.52.23.62.41.1.18.17.43.2.75l4.22,28.61ZM207.25,111.25h-.03l-7.21,13.72h9.08l-1.85-13.72Z"></path><path class="cls-2" d="M244.85,119.23c0,.58-.04,1.16-.11,1.75s-.17,1.18-.29,1.8l-2.77,13.75c-.03.17-.11.31-.24.44-.12.12-.32.23-.57.31-.26.08-.59.15-1,.19-.41.04-.92.06-1.53.06s-1.12-.02-1.51-.06c-.39-.04-.7-.1-.91-.19-.22-.08-.36-.19-.44-.31-.08-.12-.1-.27-.06-.44l2.69-13.35c.08-.4.15-.81.19-1.22.04-.42.06-.78.06-1.1,0-.75-.16-1.36-.47-1.85-.32-.48-.85-.72-1.6-.72-.68,0-1.39.22-2.13.65-.74.43-1.44,1.02-2.09,1.76-.66.74-1.24,1.61-1.76,2.59-.52.99-.88,2.04-1.1,3.16l-2.02,10.08c-.03.17-.11.31-.24.44-.12.12-.32.23-.57.31-.26.08-.6.15-1.01.19-.42.04-.92.06-1.52.06s-1.12-.02-1.51-.06c-.39-.04-.7-.1-.92-.19-.22-.08-.37-.19-.44-.31-.07-.12-.08-.27-.05-.44l4.47-22.28c.03-.17.1-.31.21-.44.11-.12.27-.22.5-.3.22-.07.52-.13.87-.17.36-.04.79-.06,1.29-.06s.94.02,1.26.06c.32.04.58.1.76.17.18.08.3.17.36.3.06.12.07.27.04.44l-.72,3.67c.35-.58.81-1.18,1.4-1.78.58-.61,1.25-1.15,2.01-1.63.76-.48,1.58-.88,2.47-1.19.89-.31,1.82-.46,2.78-.46,1.16,0,2.14.17,2.93.51.79.34,1.43.8,1.92,1.38.49.58.84,1.26,1.06,2.03.22.77.32,1.59.32,2.46Z"></path><path class="cls-2" d="M268.52,136.54c-.07.35-.33.6-.79.75-.46.15-1.19.22-2.21.22-.52,0-.94-.02-1.26-.05-.32-.03-.59-.09-.79-.16-.2-.07-.33-.17-.39-.3-.06-.12-.07-.28-.04-.46l.7-3.57c-.25.53-.65,1.09-1.2,1.68-.55.59-1.2,1.13-1.95,1.61-.75.48-1.58.88-2.48,1.2-.91.32-1.84.47-2.81.47-1.33,0-2.44-.23-3.32-.7-.88-.47-1.59-1.09-2.12-1.88-.53-.79-.91-1.69-1.14-2.71-.22-1.01-.34-2.08-.34-3.19,0-1.05.1-2.19.3-3.43.2-1.24.51-2.47.92-3.7.42-1.23.95-2.42,1.6-3.56.65-1.14,1.43-2.15,2.33-3.03.91-.88,1.95-1.58,3.12-2.11,1.17-.52,2.5-.79,3.98-.79,1.38,0,2.6.29,3.67.86,1.06.57,2,1.41,2.79,2.51l.4-1.97c.07-.35.33-.6.79-.75.46-.15,1.19-.22,2.21-.22.5,0,.91.02,1.25.06.33.04.59.1.79.17.19.08.32.17.39.3.07.12.08.27.05.44l-4.47,22.3ZM265.43,120.93c-.58-.91-1.23-1.6-1.93-2.06-.71-.46-1.53-.69-2.46-.69-.7,0-1.34.17-1.92.5s-1.1.78-1.55,1.33c-.45.56-.84,1.2-1.19,1.93-.34.73-.62,1.49-.85,2.28-.22.79-.39,1.59-.5,2.39-.11.81-.16,1.55-.16,2.23,0,.5.04.97.11,1.42.08.45.21.85.41,1.2.2.35.47.63.8.84.33.21.76.31,1.27.31.73,0,1.48-.22,2.25-.66.77-.44,1.48-1.04,2.15-1.8.66-.76,1.25-1.64,1.76-2.64.51-1.01.88-2.08,1.11-3.23l.7-3.37ZM265.76,109.48c-.13.17-.27.3-.4.41-.13.11-.31.2-.52.26-.22.07-.48.12-.8.15-.32.03-.72.05-1.2.05-.58,0-1.04-.02-1.37-.07-.33-.05-.57-.13-.7-.24-.13-.11-.18-.25-.14-.41.04-.17.14-.36.29-.57l3.79-5.71c.13-.18.28-.34.45-.47.17-.13.38-.24.64-.31.26-.08.58-.13.96-.16.38-.03.85-.05,1.4-.05.76,0,1.36.04,1.8.11.43.07.74.17.94.3.19.12.27.27.24.42-.03.16-.12.33-.27.51l-5.09,5.79Z"></path><path class="cls-2" d="M299.38,121.33c0,1.08-.1,2.25-.3,3.49-.2,1.25-.51,2.49-.92,3.72-.42,1.23-.95,2.42-1.6,3.55-.65,1.14-1.43,2.14-2.33,3.01-.91.86-1.95,1.56-3.12,2.07-1.17.52-2.49.77-3.95.77-.66,0-1.29-.07-1.87-.2-.58-.13-1.12-.32-1.61-.56-.49-.24-.94-.52-1.33-.85-.4-.32-.75-.67-1.05-1.03l-1.97,10.05c-.03.17-.11.32-.24.45-.12.13-.32.24-.57.34-.26.09-.6.16-1.01.21-.42.05-.93.08-1.55.08s-1.11-.03-1.5-.08c-.38-.05-.69-.12-.91-.21-.22-.09-.37-.2-.44-.34-.07-.13-.08-.28-.05-.45l6.24-31.11c.07-.35.32-.6.77-.75.45-.15,1.19-.22,2.22-.22.52,0,.94.02,1.26.06.32.04.58.1.77.17.19.08.32.17.39.3.07.12.08.27.05.44l-.7,3.62c.25-.55.64-1.12,1.18-1.71.54-.59,1.19-1.13,1.95-1.62.76-.49,1.59-.89,2.49-1.21.91-.32,1.84-.47,2.81-.47,1.28,0,2.36.22,3.23.66.87.44,1.58,1.04,2.12,1.81.54.76.93,1.66,1.17,2.69.24,1.03.36,2.14.36,3.32ZM292.92,121.87c0-.57-.05-1.08-.14-1.55-.09-.47-.24-.86-.45-1.19-.21-.32-.47-.57-.8-.74-.32-.17-.72-.25-1.18-.25-.75,0-1.5.22-2.26.66-.76.44-1.47,1.04-2.13,1.8-.67.76-1.26,1.64-1.77,2.64-.52,1.01-.88,2.08-1.1,3.23l-.7,3.39c.58.91,1.23,1.6,1.93,2.06.71.46,1.53.69,2.46.69.68,0,1.31-.17,1.88-.5.57-.33,1.09-.78,1.55-1.33.46-.56.86-1.2,1.2-1.93.34-.73.62-1.5.85-2.3.22-.8.39-1.6.5-2.41.11-.81.16-1.57.16-2.28Z"></path><path class="cls-2" d="M326.35,121.75c0,1.2-.11,2.43-.34,3.69-.22,1.26-.58,2.5-1.06,3.7-.48,1.21-1.1,2.34-1.86,3.39-.76,1.06-1.66,1.99-2.72,2.79-1.06.81-2.27,1.44-3.63,1.91-1.36.47-2.9.7-4.62.7s-3.13-.2-4.35-.59c-1.22-.39-2.24-.96-3.06-1.72-.81-.76-1.42-1.69-1.82-2.79-.4-1.11-.6-2.37-.6-3.8,0-1.2.11-2.43.34-3.69.22-1.26.58-2.49,1.06-3.69.48-1.2,1.1-2.33,1.86-3.4s1.66-2.01,2.72-2.81c1.06-.8,2.27-1.43,3.63-1.9,1.36-.47,2.9-.7,4.62-.7s3.13.2,4.35.59c1.22.39,2.24.96,3.06,1.72.82.76,1.42,1.69,1.82,2.79.4,1.11.6,2.37.6,3.8ZM319.87,122.17c0-.7-.07-1.32-.21-1.86-.14-.54-.37-1-.7-1.37-.32-.37-.74-.66-1.25-.86-.51-.2-1.13-.3-1.86-.3-.83,0-1.58.16-2.25.49-.67.32-1.26.76-1.78,1.31-.52.55-.98,1.19-1.36,1.91-.38.72-.7,1.48-.95,2.28-.25.8-.43,1.61-.55,2.43-.12.82-.17,1.61-.17,2.36,0,.7.07,1.32.21,1.87.14.55.37,1.01.7,1.39.32.37.74.66,1.25.86.51.2,1.13.3,1.86.3.83,0,1.58-.16,2.25-.49.66-.32,1.26-.76,1.78-1.32.52-.56.98-1.2,1.36-1.92.38-.72.7-1.49.95-2.3.25-.81.43-1.62.55-2.43.12-.82.17-1.6.17-2.34Z"></path><path class="cls-2" d="M335.01,136.52c-.03.17-.11.31-.24.44-.12.12-.31.23-.56.31-.25.08-.58.15-1,.19-.42.04-.92.06-1.52.06-.63,0-1.14-.02-1.53-.06-.39-.04-.69-.1-.91-.19-.22-.08-.36-.19-.44-.31-.07-.12-.1-.27-.06-.44l6.56-32.81c.03-.17.11-.32.22-.45.12-.13.31-.25.57-.34.27-.09.6-.16,1.01-.21.41-.05.92-.08,1.53-.08s1.12.03,1.51.08c.39.05.69.12.91.21.22.09.36.2.42.34.07.13.08.28.05.45l-6.54,32.81Z"></path><path class="cls-2" d="M347.56,136.52c-.03.17-.11.31-.24.44-.12.12-.32.23-.57.31-.26.08-.6.15-1.01.19-.42.04-.92.06-1.52.06s-1.12-.02-1.51-.06c-.39-.04-.7-.1-.92-.19-.22-.08-.37-.19-.44-.31-.07-.12-.08-.27-.05-.44l4.42-22.2c.03-.17.11-.31.24-.44.12-.12.32-.23.57-.32.26-.09.59-.16,1-.21.41-.05.92-.07,1.53-.07s1.12.02,1.51.07c.39.05.7.12.92.21.22.09.37.2.44.32.07.12.08.27.05.44l-4.42,22.2ZM353.99,106.78c-.12.61-.27,1.14-.47,1.56-.2.42-.47.77-.8,1.02-.33.26-.74.44-1.22.55-.48.11-1.08.16-1.8.16s-1.27-.05-1.71-.16c-.44-.11-.77-.29-1-.55-.22-.26-.35-.6-.39-1.02-.03-.42.02-.94.15-1.56.12-.6.27-1.11.47-1.52.2-.42.47-.76.8-1.02.33-.27.74-.46,1.22-.57.48-.12,1.08-.17,1.8-.17s1.27.06,1.71.17c.44.12.77.31,1,.57.22.27.35.61.37,1.02.02.42-.02.92-.14,1.52Z"></path><path class="cls-2" d="M372.18,115.24c0,.2-.03.49-.09.89-.06.39-.15.79-.26,1.19-.12.4-.25.74-.41,1.04-.16.29-.34.44-.54.44-.22,0-.47-.08-.76-.24-.29-.16-.65-.33-1.06-.52-.42-.19-.9-.36-1.46-.51-.56-.15-1.21-.22-1.96-.22-.58,0-1.1.07-1.56.22-.46.15-.84.35-1.14.61-.3.26-.53.56-.69.91-.16.35-.24.72-.24,1.12,0,.52.21.95.64,1.3.42.35.95.68,1.58.99.63.31,1.31.63,2.05.96.73.33,1.41.75,2.05,1.25.63.5,1.16,1.11,1.57,1.82.41.72.62,1.61.62,2.69,0,1.26-.24,2.43-.72,3.51-.48,1.07-1.18,2-2.11,2.78-.92.78-2.05,1.39-3.37,1.83-1.32.44-2.82.66-4.48.66-.8,0-1.56-.06-2.28-.17-.72-.12-1.37-.26-1.95-.42-.57-.17-1.06-.36-1.46-.57-.4-.22-.7-.42-.9-.6-.13-.13-.23-.27-.29-.42-.06-.15-.09-.34-.09-.57,0-.15.01-.34.04-.57.03-.23.07-.49.12-.77.06-.28.12-.57.2-.85.08-.28.16-.54.26-.77.1-.23.21-.42.32-.56.12-.14.24-.21.37-.21.23,0,.49.1.77.3s.65.42,1.1.66c.45.24,1,.47,1.66.67.66.21,1.48.31,2.46.31.68,0,1.28-.08,1.78-.24.51-.16.93-.38,1.26-.66.33-.28.58-.61.74-.97.16-.37.24-.76.24-1.17,0-.58-.2-1.06-.61-1.42-.41-.37-.92-.71-1.53-1.02-.62-.32-1.28-.64-2.01-.97-.72-.33-1.39-.74-2.01-1.22-.62-.48-1.13-1.08-1.53-1.8-.41-.71-.61-1.61-.61-2.69,0-1.18.22-2.28.67-3.29.45-1.01,1.11-1.9,1.97-2.66.86-.76,1.91-1.35,3.14-1.77,1.23-.42,2.63-.64,4.19-.64.7,0,1.38.05,2.03.14.66.09,1.25.21,1.77.36.52.15.98.32,1.37.5.39.18.67.37.84.55.18.17.27.45.27.85Z"></path><path class="cls-1" d="M169.03,0H20.93c16.99,45.4,12.58,86.42-11.5,123.43l.15-.22s102.52,1.47,163.09-25.49c.06-.15.12-.3.18-.45.21-.53.42-1.07.62-1.6.14-.38.28-.76.42-1.14.2-.54.39-1.07.58-1.61.13-.37.25-.74.37-1.11.33-1,.65-2,.96-3,.12-.4.25-.81.37-1.21.15-.5.28-1.01.42-1.51.12-.44.25-.89.36-1.33.13-.49.25-.99.38-1.49.11-.46.23-.92.34-1.39.11-.49.23-.97.33-1.46s.21-.98.31-1.47c.1-.47.19-.93.29-1.4.11-.57.21-1.13.31-1.7.08-.48.17-.96.25-1.44.14-.84.27-1.68.38-2.52.06-.42.11-.84.16-1.27.07-.56.14-1.12.21-1.68.05-.45.1-.91.14-1.37.05-.53.11-1.07.15-1.61.04-.47.08-.93.11-1.4.01-.2.03-.4.05-.59,0,0,0,0,0,.01,1.39-20.05-2.37-41.38-11.32-63.97Z"></path><path class="cls-1" d="M3.91,131.38c-1.26,1.71-2.56,3.41-3.91,5.1h148.1c7.93-8.85,16.2-22.39,21.23-31.96-2.46,1.54-32.2,21.39-165.43,26.86ZM90.25,126.21s-.03,0-.05,0"></path></g></g></svg>